<svg width="38" height="38" viewBox="0 0 38 38" fill="none" xmlns="http://www.w3.org/2000/svg">
<path fill-rule="evenodd" clip-rule="evenodd" d="M9.5 14C12.5376 14 15 11.5376 15 8.5C15 5.46243 12.5376 3 9.5 3C6.46243 3 4 5.46243 4 8.5C4 11.5376 6.46243 14 9.5 14ZM32.8366 9.97466C31.626 8.1726 29.566 6.98689 27.2284 6.98689L17.9861 6.98676V9.97466H27.2284C29.2974 9.97466 30.9746 11.6461 30.9746 13.7081C30.9746 15.77 29.2974 17.4415 27.2284 17.4415H10.7442C8.40538 17.4415 6.34539 18.6272 5.13607 20.4294C4.41787 21.4961 4 22.781 4 24.1626C4 25.5455 4.41787 26.8292 5.13607 27.8973C6.34539 29.6981 8.40538 30.8838 10.7442 30.8838L19.9845 30.8846V27.8967L10.7442 27.8973C8.67518 27.8973 6.99807 26.2259 6.99807 24.1626C6.99807 22.1007 8.67518 20.4294 10.7442 20.4294H27.2284C29.566 20.4294 31.6273 19.2435 32.8366 17.4415C33.5547 16.3733 33.9728 15.0896 33.9728 13.7081C33.9728 12.3265 33.5547 11.0415 32.8366 9.97466ZM34 29.5C34 32.5376 31.5376 35 28.5 35C25.4624 35 23 32.5376 23 29.5C23 26.4624 25.4624 24 28.5 24C31.5376 24 34 26.4624 34 29.5Z" fill="#1B2D2D"/>
</svg>
